<?xml version="1.0" encoding="UTF-8"?>
<svg version="1.1" xmlns="http://www.w3.org/2000/svg" width="512" height="512">
<path d="M0 0 C30.9890532 9.83306496 58.54555534 6.06900905 88.85961914 -4.30737305 C95.29499148 -6.38985866 101.60391108 -6.22214666 108.31445312 -6.24023438 C110.46525182 -6.24984474 112.61505419 -6.28084486 114.765625 -6.3125 C126.47209448 -6.40504963 136.81738691 -4.69937062 147.25 0.8125 C147.93545898 1.16795898 148.62091797 1.52341797 149.32714844 1.88964844 C163.17002537 9.21046414 174.43185286 20.28781942 182 34 C182.45890625 34.78632812 182.9178125 35.57265625 183.390625 36.3828125 C199.02462625 64.91957381 192.37633349 103.93758172 183.88183594 133.75292969 C180.77559095 144.25804983 176.84308315 154.28627197 172.57470703 164.36572266 C168.31678857 174.65941717 165.20725684 185.11777915 162.24462891 195.8449707 C161.62769545 198.06721941 160.99800767 200.28556653 160.3671875 202.50390625 C160.09828201 203.5024337 160.09828201 203.5024337 159.82394409 204.52113342 C158.56248252 208.93589708 156.84213161 212.39072779 154 216 C147.79624796 217.8831363 140.97020236 216.89334279 134.5625 216.5625 C133.44939453 216.51029297 132.33628906 216.45808594 131.18945312 216.40429688 C128.45929677 216.27540537 125.72958065 216.14047673 123 216 C123.33 216.99 123.66 217.98 124 219 C124.13340105 221.92838307 124.21234439 224.83209062 124.23828125 227.76171875 C124.246353 228.62634232 124.25442474 229.49096588 124.26274109 230.38179016 C124.27657082 232.21340945 124.28729795 234.04505439 124.29516602 235.87670898 C124.30666728 237.74169513 124.32708966 239.60664884 124.35668945 241.47143555 C124.39956492 244.17258983 124.4155643 246.87276551 124.42578125 249.57421875 C124.45204338 250.81059334 124.45204338 250.81059334 124.47883606 252.07194519 C124.45823664 257.63829106 123.52368377 262.52483479 120 267 C111.22210176 271.3873607 98.25270259 269.32181466 89 268 C89 277.9 89 287.8 89 298 C93.62 298 98.24 298 103 298 C112.43589744 298.71794872 112.43589744 298.71794872 115 300 C115.02697137 302.60423592 115.04682489 305.20819244 115.0625 307.8125 C115.07087891 308.55048828 115.07925781 309.28847656 115.08789062 310.04882812 C115.10259828 313.29922068 115.03531702 315.89404895 114 319 C105.38455305 319.36488952 97.73210298 318.1642804 89 317 C89 327.56 89 338.12 89 349 C92.96 349 96.92 349 101 349 C103.59095711 349.26770037 106.17796408 349.58847425 108.75 350 C109.94109375 350.185625 111.1321875 350.37125 112.359375 350.5625 C113.23078125 350.706875 114.1021875 350.85125 115 351 C115.02690104 353.79173055 115.04679053 356.58320348 115.0625 359.375 C115.07087891 360.1690625 115.07925781 360.963125 115.08789062 361.78125 C115.11328125 367.7734375 115.11328125 367.7734375 114 370 C111.7086144 370.05499325 109.41682526 370.09323213 107.125 370.125 C105.84882813 370.14820313 104.57265625 370.17140625 103.2578125 370.1953125 C99 370 99 370 89 368 C89 378.56 89 389.12 89 400 C91.97 400 94.94 400 98 400 C99.53559875 400.10917749 101.07025502 400.2450715 102.59765625 400.4375 C103.33564453 400.52773438 104.07363281 400.61796875 104.83398438 400.7109375 C105.56939453 400.80632812 106.30480469 400.90171875 107.0625 401 C107.83271484 401.09539062 108.60292969 401.19078125 109.39648438 401.2890625 C111.26493478 401.52116814 113.13256386 401.75987044 115 402 C115.02690104 404.79173055 115.04679053 407.58320348 115.0625 410.375 C115.07087891 411.1690625 115.07925781 411.963125 115.08789062 412.78125 C115.11328125 418.7734375 115.11328125 418.7734375 114 421 C111.70840363 421.02749916 109.41670632 421.04661689 107.125 421.0625 C105.84882813 421.07410156 104.57265625 421.08570313 103.2578125 421.09765625 C98.49239832 420.98835776 93.74301138 420.47430114 89 420 C89 430.56 89 441.12 89 452 C92.9290625 451.9690625 92.9290625 451.9690625 96.9375 451.9375 C103.03859916 451.91366304 108.95097448 452.12014174 115 453 C115.02697137 455.60423592 115.04682489 458.20819244 115.0625 460.8125 C115.07087891 461.55048828 115.07925781 462.28847656 115.08789062 463.04882812 C115.10259828 466.29922068 115.03531702 468.89404895 114 472 C103.93395765 472.10849626 94.02887177 471.9767249 84 471 C83.59652344 472.25167969 83.19304687 473.50335938 82.77734375 474.79296875 C80.9107212 480.38407806 78.76956626 485.84826083 76.5625 491.3125 C76.18029297 492.28767578 75.79808594 493.26285156 75.40429688 494.26757812 C75.02466797 495.20666016 74.64503906 496.14574219 74.25390625 497.11328125 C73.74839233 498.37845581 73.74839233 498.37845581 73.23266602 499.66918945 C71.77623262 502.42311491 70.41636791 504.02052665 68 506 C65.19213867 506.50793457 65.19213867 506.50793457 61.91796875 506.51757812 C60.68989502 506.53018677 59.46182129 506.54279541 58.1965332 506.55578613 C56.86018295 506.54862627 55.52383795 506.54042227 54.1875 506.53125 C52.81274135 506.53394577 51.43798456 506.53782889 50.06323242 506.54284668 C47.18487356 506.54873793 44.30701191 506.54019176 41.42871094 506.52148438 C37.74295984 506.49869389 34.05837378 506.51181913 30.37266541 506.53577423 C27.53470107 506.55024299 24.69701202 506.54562154 21.85903931 506.53526306 C20.50029359 506.5325987 19.14152272 506.53585541 17.7828064 506.54518127 C15.88255301 506.55536241 13.98221176 506.53708729 12.08203125 506.51757812 C11.00155518 506.51439575 9.9210791 506.51121338 8.80786133 506.50793457 C5.32725997 505.87830314 4.18868128 504.7178603 2 502 C0.7199707 499.70849609 0.7199707 499.70849609 -0.38671875 497.1484375 C-0.80743652 496.17874023 -1.2281543 495.20904297 -1.66162109 494.20996094 C-4.09739775 488.368007 -6.48485104 482.51093741 -8.8125 476.625 C-9.31962442 475.36847463 -9.8267857 474.11196414 -10.33398438 472.85546875 C-10.80771484 471.65792969 -11.28144531 470.46039063 -11.76953125 469.2265625 C-12.41305542 467.61128662 -12.41305542 467.61128662 -13.06958008 465.96337891 C-13.96674782 463.1059079 -14.19603429 460.96832304 -14 458 C-14.94359375 458.02320313 -15.8871875 458.04640625 -16.859375 458.0703125 C-25.14634301 458.18679599 -32.84644749 457.70055471 -41 456 C-41.02697137 453.39576408 -41.04682489 450.79180756 -41.0625 448.1875 C-41.07087891 447.44951172 -41.07925781 446.71152344 -41.08789062 445.95117188 C-41.10259828 442.70077932 -41.03531702 440.10595105 -40 437 C-31.38455305 436.63511048 -23.73210298 437.8357196 -15 439 C-15 428.44 -15 417.88 -15 407 C-18.3 407 -21.6 407 -25 407 C-27.89809599 406.71676549 -30.74674588 406.40415713 -33.625 406 C-34.34300781 405.90460938 -35.06101562 405.80921875 -35.80078125 405.7109375 C-37.53463716 405.47975671 -39.26744713 405.24075176 -41 405 C-41.02690104 402.20826945 -41.04679053 399.41679652 -41.0625 396.625 C-41.07087891 395.8309375 -41.07925781 395.036875 -41.08789062 394.21875 C-41.11328125 388.2265625 -41.11328125 388.2265625 -40 386 C-37.89614706 385.94471627 -35.79184125 385.90664423 -33.6875 385.875 C-32.51574219 385.85179687 -31.34398437 385.82859375 -30.13671875 385.8046875 C-25.04402994 386.04513551 -20.01612492 387.08797729 -15 388 C-15 377.44 -15 366.88 -15 356 C-17.97 356 -20.94 356 -24 356 C-25.53559875 355.89082251 -27.07025502 355.7549285 -28.59765625 355.5625 C-29.33564453 355.47226562 -30.07363281 355.38203125 -30.83398438 355.2890625 C-31.56939453 355.19367188 -32.30480469 355.09828125 -33.0625 355 C-33.83271484 354.90460938 -34.60292969 354.80921875 -35.39648438 354.7109375 C-37.26493478 354.47883186 -39.13256386 354.24012956 -41 354 C-41.02690104 351.20826945 -41.04679053 348.41679652 -41.0625 345.625 C-41.07087891 344.8309375 -41.07925781 344.036875 -41.08789062 343.21875 C-41.11328125 337.2265625 -41.11328125 337.2265625 -40 335 C-37.8959118 334.97235505 -35.79171032 334.95332113 -33.6875 334.9375 C-32.51574219 334.92589844 -31.34398437 334.91429687 -30.13671875 334.90234375 C-25.07930598 335.02173499 -20.03804628 335.54199579 -15 336 C-15 325.44 -15 314.88 -15 304 C-20.56352869 304.03920482 -20.56352869 304.03920482 -26.12695312 304.09008789 C-31.17714613 304.10782996 -36.00180902 303.72794754 -41 303 C-41.02690104 300.20826945 -41.04679053 297.41679652 -41.0625 294.625 C-41.07087891 293.8309375 -41.07925781 293.036875 -41.08789062 292.21875 C-41.11328125 286.2265625 -41.11328125 286.2265625 -40 284 C-37.14576808 283.97281684 -34.29179985 283.95307295 -31.4375 283.9375 C-30.63763672 283.92912109 -29.83777344 283.92074219 -29.01367188 283.91210938 C-27.8293457 283.90727539 -27.8293457 283.90727539 -26.62109375 283.90234375 C-25.54492798 283.89448853 -25.54492798 283.89448853 -24.44702148 283.88647461 C-21.2796213 284.03342074 -18.13893879 284.55158017 -15 285 C-15 279.39 -15 273.78 -15 268 C-16.155 268.165 -17.31 268.33 -18.5 268.5 C-23.0362961 268.98963196 -27.56520282 269.17829181 -32.125 269.25 C-32.79337891 269.27126953 -33.46175781 269.29253906 -34.15039062 269.31445312 C-39.09753628 269.34857137 -42.75355345 268.55409744 -47 266 C-50.05030979 260.4830105 -50.42074662 255.89384153 -50.328125 249.671875 C-50.32625183 248.80105286 -50.32437866 247.93023071 -50.32244873 247.03302002 C-50.31576112 245.20426568 -50.30191271 243.37552484 -50.28125 241.546875 C-50.2499403 238.74465677 -50.24025823 235.94300131 -50.234375 233.140625 C-50.22520997 231.35936812 -50.2148358 229.57811696 -50.203125 227.796875 C-50.19887512 226.95936707 -50.19462524 226.12185913 -50.19024658 225.25897217 C-50.14914806 221.93085347 -50.05941882 219.17825647 -49 216 C-50.66095703 216.24363281 -50.66095703 216.24363281 -52.35546875 216.4921875 C-57.34693618 217.11460886 -62.28832781 217.14724726 -67.3125 217.125 C-68.65151367 217.13080078 -68.65151367 217.13080078 -70.01757812 217.13671875 C-71.30245117 217.13478516 -71.30245117 217.13478516 -72.61328125 217.1328125 C-73.77017456 217.13112061 -73.77017456 217.13112061 -74.95043945 217.12939453 C-77 217 -77 217 -80 216 C-83.69724967 211.38720662 -85.27300446 206.70238678 -86.8828125 201.0703125 C-87.4103764 199.29880538 -87.93830369 197.52740645 -88.46655273 195.75610352 C-88.73716522 194.83596466 -89.00777771 193.91582581 -89.28659058 192.96780396 C-93.1295113 179.93757085 -96.98698811 167.0245876 -102.4375 154.5625 C-117.29762708 120.52213369 -126.22258075 79.00166846 -113 43 C-109.14292059 34.42216945 -104.26312935 26.99475154 -98 20 C-97.19949219 19.09378906 -96.39898437 18.18757813 -95.57421875 17.25390625 C-70.31170655 -9.73019938 -33.30709281 -11.12118184 0 0 Z M-84 33 C-97.75283592 50.27100325 -100.66026045 70.62748762 -98.53125 92.0546875 C-95.9144613 115.08452147 -89.73630904 137.38582342 -80.0625 158.4375 C-76.36149007 166.78721782 -74.122335 175.61382437 -71.71508789 184.40405273 C-71.22963501 186.17244507 -71.22963501 186.17244507 -70.734375 187.9765625 C-70.44788086 189.03955566 -70.16138672 190.10254883 -69.86621094 191.19775391 C-68.99849548 194.27487424 -68.99849548 194.27487424 -67 198 C1.64 198 70.28 198 141 198 C146.20389848 181.75522017 146.20389848 181.75522017 151.375 165.5 C153.62362238 158.75413287 156.31915519 152.20906901 159 145.625 C166.62699726 126.80597052 173.27106418 106.4735886 174 86 C174.03996094 85.06414062 174.07992188 84.12828125 174.12109375 83.1640625 C174.56023866 63.48003766 169.21137721 45.3489458 155.67578125 30.609375 C142.85920546 18.30068216 129.37108612 12.06992331 111.5 11.625 C99.17026029 11.94147176 88.30261739 15.48632885 76.75952148 19.43823242 C58.75770462 25.54328155 40.48952155 27.46077489 21.625 24.875 C20.68599854 24.74665771 19.74699707 24.61831543 18.77954102 24.48608398 C8.5657598 22.96557201 -1.17248268 20.10584661 -11 17 C-12.33052063 16.5852679 -13.66123245 16.17114836 -14.9921875 15.7578125 C-17.1008785 15.10273162 -19.20704446 14.43936118 -21.30859375 13.76171875 C-43.96272029 7.3501735 -68.5695968 15.53928059 -84 33 Z M-31 216 C-31 227.22 -31 238.44 -31 250 C13.88 250 58.76 250 105 250 C105 238.78 105 227.56 105 216 C60.12 216 15.24 216 -31 216 Z M3 268 C3 274.6 3 281.2 3 288 C10.44353959 289.59562789 17.8308977 290.6702803 25.39453125 291.5078125 C26.54491379 291.63815887 27.69529633 291.76850525 28.88053894 291.90280151 C31.29472095 292.17537723 33.70913957 292.44586472 36.1237793 292.71435547 C39.81947757 293.12577677 43.51425544 293.54481554 47.20898438 293.96484375 C49.56244947 294.2296162 51.91596347 294.49395437 54.26953125 294.7578125 C55.37166458 294.88278107 56.47379791 295.00774963 57.60932922 295.13650513 C58.63777451 295.25017426 59.66621979 295.36384338 60.72583008 295.48095703 C61.62610428 295.58151398 62.52637848 295.68207092 63.45393372 295.78567505 C65.961435 295.99675364 68.48363023 296 71 296 C71 286.76 71 277.52 71 268 C48.56 268 26.12 268 3 268 Z M3 307 C3 317.89 3 328.78 3 340 C10.82505004 340.9148284 18.65012385 341.82887899 26.47611237 342.73554993 C30.12095921 343.15804237 33.76563071 343.58193256 37.40991211 344.00927734 C40.92379188 344.42127484 44.43810948 344.829331 47.95275688 345.23472595 C49.93765599 345.4646949 51.92208832 345.69868119 53.9065094 345.93273926 C55.12724655 346.07288452 56.3479837 346.21302979 57.60571289 346.35742188 C58.67382706 346.48177612 59.74194122 346.60613037 60.84242249 346.73425293 C64.21750813 347.01830585 67.61298226 347 71 347 C71 336.11 71 325.22 71 314 C65.66988852 313.32209262 60.33960786 312.64590303 55.00878906 311.97363281 C53.20528595 311.74572109 51.40189527 311.51691741 49.59863281 311.28710938 C39.79992799 310.03900619 29.99796067 308.84912417 20.171875 307.8359375 C19.36727844 307.75066803 18.56268188 307.66539856 17.73370361 307.57754517 C16.96661072 307.50087616 16.19951782 307.42420715 15.40917969 307.34521484 C14.41806183 307.24459244 14.41806183 307.24459244 13.40692139 307.14193726 C9.94364154 306.93770606 6.46929642 307 3 307 Z M3 358 C3 368.89 3 379.78 3 391 C10.97261693 391.91435513 18.94526133 392.82806332 26.9186554 393.73554993 C30.63200905 394.15837066 34.34521885 394.58237328 38.05810547 395.00927734 C41.63688841 395.42071546 45.21603466 395.8288464 48.79545212 396.23472595 C50.15826125 396.38983927 51.52093733 396.54612635 52.88347244 396.70362854 C54.79776818 396.92470461 56.71259687 397.14115079 58.62744141 397.35742188 C59.71554108 397.48177612 60.80364075 397.60613037 61.92471313 397.73425293 C64.93986878 397.99480384 67.9736077 398 71 398 C71 387.11 71 376.22 71 365 C64.20943004 364.15825763 57.41858957 363.32033261 50.62646484 362.49145508 C48.32412011 362.20940099 46.02202737 361.9252809 43.72021484 361.63891602 C30.13858735 359.95082083 16.67707043 358.57289956 3 358 Z M3 409 C3 419.89 3 430.78 3 442 C9.30809279 442.84434971 15.61648357 443.68299828 21.92700195 444.50854492 C24.06348006 444.78962257 26.19956705 445.073693 28.33520508 445.36108398 C42.5834574 447.27582912 56.62750049 448.50439657 71 449 C71 438.11 71 427.22 71 416 C59.92509097 414.75328979 59.92509097 414.75328979 48.84960938 413.51171875 C44.330793 413.00630994 39.81204893 412.50030615 35.29370117 411.99072266 C31.6500195 411.57982306 28.00604457 411.17162256 24.36185265 410.76527405 C22.97312374 410.60994611 21.58450234 410.45365383 20.19599342 410.29637146 C18.24789481 410.07587044 16.29936971 409.85914737 14.35083008 409.64257812 C13.2427449 409.51822388 12.13465973 409.39386963 10.99299622 409.26574707 C7.67072735 408.92629858 7.67072735 408.92629858 3 409 Z M8 461 C10.14133894 471.71010753 10.14133894 471.71010753 17 488 C30.2 488 43.4 488 57 488 C58.32 484.720625 59.64 481.44125 61 478.0625 C61.62648438 476.50994507 61.62648438 476.50994507 62.265625 474.92602539 C62.59046875 474.11641357 62.9153125 473.30680176 63.25 472.47265625 C63.58515625 471.64000244 63.9203125 470.80734863 64.265625 469.94946289 C65.05875383 468.1912324 65.05875383 468.1912324 65 467 C59.45471453 466.29989614 53.90864624 465.60646238 48.36181641 464.91870117 C46.48236625 464.684772 44.60312607 464.44914839 42.72412109 464.21166992 C31.15425745 462.75076616 19.65245234 461.54633829 8 461 Z " fill="#FFFFFF" transform="translate(219,6)"/>
<path d="M0 0 C4.86004524 1.38858435 6.4068717 4.07431804 9.21484375 8.12890625 C10.83586168 11.75032929 11.08390522 14.07436026 10.5 18 C8.33984375 20.16015625 8.33984375 20.16015625 5.4375 22.0625 C-2.741448 28.33372946 -6.88289813 36.0303368 -8.3671875 46.125 C-8.95233971 50.75361975 -9.19497064 55.32288312 -9.5 60 C-16.1 60 -22.7 60 -29.5 60 C-28.68219699 36.93795526 -24.13132765 19.87081889 -6.875 3.3125 C-4.44880486 1.41738444 -3.08938059 0.88268017 0 0 Z " fill="#FFFFFF" transform="translate(164.5,34)"/>
</svg>
