<?xml version="1.0" encoding="UTF-8"?>
<svg version="1.1" xmlns="http://www.w3.org/2000/svg" width="512" height="512">
<path d="M0 0 C27.7373127 9.92593418 55.08744966 6.38682055 82.13647461 -3.74047852 C101.03992775 -10.72092438 122.97284565 -10.15232714 141.42358398 -2.04614258 C149.01979403 1.47873632 155.99223186 5.48784307 162.20874023 11.15307617 C163.01569336 11.86850586 163.82264648 12.58393555 164.65405273 13.32104492 C179.74774798 27.46849933 188.77189398 46.88569166 189.50952148 67.63354492 C189.52910319 69.5357919 189.53241811 71.43826125 189.52124023 73.34057617 C189.51560059 74.37448486 189.50996094 75.40839355 189.50415039 76.47363281 C189.05852931 105.62651699 182.66499399 135.73189121 169.84545898 162.01245117 C165.93643362 170.48760645 163.65844939 179.58140193 161.08374023 188.52807617 C160.29686313 191.25729981 159.50746495 193.98564508 158.70925903 196.71157837 C158.21611846 198.39580554 157.72933383 200.08191127 157.24996948 201.77011108 C156.02995966 205.93853743 154.78802487 209.58782382 152.20874023 213.15307617 C149.33855582 214.58816838 146.87330301 214.26466123 143.66967773 214.25073242 C142.36772461 214.24750977 141.06577148 214.24428711 139.72436523 214.2409668 C138.34415625 214.23261083 136.96394791 214.22414588 135.58374023 214.21557617 C134.19572098 214.21056118 132.80770001 214.20599827 131.41967773 214.2019043 C128.01598891 214.19008593 124.61238585 214.17361051 121.20874023 214.15307617 C121.23230591 216.10528076 121.23230591 216.10528076 121.25634766 218.09692383 C121.31076474 222.93865742 121.34513329 227.78036412 121.37353516 232.62231445 C121.38859492 234.7154597 121.40904695 236.80857353 121.43505859 238.90161133 C121.47156524 241.91519945 121.48849496 244.92836929 121.50170898 247.94213867 C121.51719284 248.87361725 121.5326767 249.80509583 121.54862976 250.76480103 C121.54995158 255.90092034 121.39817477 259.88120501 118.20874023 264.15307617 C114.17931544 266.10790402 110.58850276 266.39410465 106.15405273 266.34838867 C105.15390137 266.34339355 104.15375 266.33839844 103.12329102 266.33325195 C101.87273926 266.31504395 100.6221875 266.29683594 99.33374023 266.27807617 C95.33249023 266.23682617 91.33124023 266.19557617 87.20874023 266.15307617 C87.20874023 276.05307617 87.20874023 285.95307617 87.20874023 296.15307617 C89.49811523 296.29745117 91.78749023 296.44182617 94.14624023 296.59057617 C110.19348151 297.64544681 110.19348151 297.64544681 113.20874023 299.15307617 C113.06820152 301.77845901 112.92155077 304.40325044 112.77124023 307.02807617 C112.73192383 307.77444336 112.69260742 308.52081055 112.65209961 309.28979492 C112.32202148 314.92651367 112.32202148 314.92651367 111.20874023 317.15307617 C107.95825569 316.845489 104.70845853 316.53114799 101.45874023 316.21557617 C100.53834961 316.12856445 99.61795898 316.04155273 98.66967773 315.9519043 C97.78022461 315.86489258 96.89077148 315.77788086 95.97436523 315.68823242 C95.15742188 315.60968018 94.34047852 315.53112793 93.4987793 315.45019531 C91.20874023 315.15307617 91.20874023 315.15307617 87.20874023 314.15307617 C87.20874023 325.04307617 87.20874023 335.93307617 87.20874023 347.15307617 C94.26849398 347.76976151 94.26849398 347.76976151 101.32885742 348.37939453 C102.2121875 348.45810791 103.09551758 348.53682129 104.00561523 348.61791992 C104.90634766 348.69647217 105.80708008 348.77502441 106.73510742 348.85595703 C109.20874023 349.15307617 109.20874023 349.15307617 113.20874023 350.15307617 C112.87874023 355.76307617 112.54874023 361.37307617 112.20874023 367.15307617 C108.37467163 367.91988989 106.47905256 368.26745495 102.85327148 367.84838867 C102.06629883 367.75944336 101.27932617 367.67049805 100.46850586 367.57885742 C99.25710938 367.4299707 99.25710938 367.4299707 98.02124023 367.27807617 C97.20204102 367.18655273 96.3828418 367.0950293 95.53881836 367.00073242 C89.4902252 366.29381865 89.4902252 366.29381865 87.20874023 365.15307617 C87.20874023 376.04307617 87.20874023 386.93307617 87.20874023 398.15307617 C95.78874023 399.14307617 104.36874023 400.13307617 113.20874023 401.15307617 C113.06436523 403.93745117 112.91999023 406.72182617 112.77124023 409.59057617 C112.72813721 410.4689917 112.68503418 411.34740723 112.640625 412.25244141 C112.31985135 418.04196506 112.31985135 418.04196506 111.20874023 419.15307617 C108.87298053 419.08753189 106.53914804 418.9491577 104.20874023 418.77807617 C102.92999023 418.6878418 101.65124023 418.59760742 100.33374023 418.50463867 C95.95149179 418.13115159 91.57997536 417.63876896 87.20874023 417.15307617 C87.20874023 428.04307617 87.20874023 438.93307617 87.20874023 450.15307617 C90.17874023 450.15307617 93.14874023 450.15307617 96.20874023 450.15307617 C97.74433899 450.26225366 99.27899525 450.39814767 100.80639648 450.59057617 C101.54438477 450.68081055 102.28237305 450.77104492 103.04272461 450.86401367 C103.77813477 450.9594043 104.51354492 451.05479492 105.27124023 451.15307617 C106.04145508 451.2484668 106.81166992 451.34385742 107.60522461 451.44213867 C109.47367501 451.67424431 111.34130409 451.91294661 113.20874023 452.15307617 C113.06820152 454.77845901 112.92155077 457.40325044 112.77124023 460.02807617 C112.73192383 460.77444336 112.69260742 461.52081055 112.65209961 462.28979492 C112.32202148 467.92651367 112.32202148 467.92651367 111.20874023 470.15307617 C108.6252846 470.00921075 106.04199333 469.86300203 103.45874023 469.71557617 C102.39333008 469.65660156 102.39333008 469.65660156 101.30639648 469.59643555 C94.93057101 469.22968452 88.57109556 468.70353473 82.20874023 468.15307617 C81.83587891 469.10150391 81.46301758 470.04993164 81.07885742 471.02709961 C79.68780269 474.55734983 78.2830905 478.08203178 76.87426758 481.60522461 C76.26735773 483.1284874 75.66412157 484.65321939 75.06469727 486.17944336 C74.20055145 488.37778444 73.32316664 490.57043706 72.44311523 492.76245117 C72.17940125 493.44176697 71.91568726 494.12108276 71.64398193 494.82098389 C70.0440793 498.76192325 68.52794975 501.4821702 65.20874023 504.15307617 C62.48353577 504.67446899 62.48353577 504.67446899 59.32617188 504.70239258 C58.14136734 504.7214566 56.95656281 504.74052063 55.7358551 504.76016235 C54.45975876 504.75833954 53.18366241 504.75651672 51.86889648 504.75463867 C50.55465195 504.76320892 49.24040741 504.77177917 47.88633728 504.78060913 C45.10635227 504.79551626 42.32687529 504.79496468 39.546875 504.78442383 C35.99085192 504.77283506 32.43691268 504.80669298 28.88123417 504.85311317 C25.48120183 504.88973118 22.08162486 504.88221627 18.68139648 504.87963867 C17.40732437 504.89805817 16.13325226 504.91647766 14.8205719 504.93545532 C6.07484234 504.84374269 6.07484234 504.84374269 2.1159668 501.68676758 C1.09632874 500.03585815 1.09632874 500.03585815 0.20874023 498.15307617 C-0.12634048 497.46915802 -0.4614212 496.78523987 -0.80665588 496.08059692 C-1.88286513 493.71014114 -2.84005249 491.31521595 -3.77954102 488.88745117 C-4.127603 488.01284241 -4.47566498 487.13823364 -4.83427429 486.23712158 C-5.56291104 484.40031323 -6.28620407 482.56137694 -7.00439453 480.72045898 C-8.10736866 477.89382754 -9.22614001 475.07386088 -10.34790039 472.25463867 C-11.05519951 470.46593926 -11.76161155 468.67688876 -12.46704102 466.88745117 C-12.80133621 466.0416449 -13.13563141 465.19583862 -13.48005676 464.32440186 C-13.78425034 463.54308899 -14.08844391 462.76177612 -14.40185547 461.95678711 C-14.67101273 461.26872986 -14.94016998 460.58067261 -15.21748352 459.87176514 C-15.79125977 458.15307617 -15.79125977 458.15307617 -15.79125977 456.15307617 C-16.8418457 456.09249023 -17.89243164 456.0319043 -18.97485352 455.96948242 C-39.59405691 454.7516776 -39.59405691 454.7516776 -42.79125977 453.15307617 C-42.65072105 450.52769333 -42.5040703 447.90290191 -42.35375977 445.27807617 C-42.31444336 444.53170898 -42.27512695 443.7853418 -42.23461914 443.01635742 C-41.90454102 437.37963867 -41.90454102 437.37963867 -40.79125977 435.15307617 C-37.54077522 435.46066335 -34.29097807 435.77500435 -31.04125977 436.09057617 C-30.12086914 436.17758789 -29.20047852 436.26459961 -28.25219727 436.35424805 C-27.36274414 436.44125977 -26.47329102 436.52827148 -25.55688477 436.61791992 C-24.73994141 436.69647217 -23.92299805 436.77502441 -23.08129883 436.85595703 C-20.79125977 437.15307617 -20.79125977 437.15307617 -16.79125977 438.15307617 C-16.79125977 427.26307617 -16.79125977 416.37307617 -16.79125977 405.15307617 C-23.85101351 404.53639083 -23.85101351 404.53639083 -30.91137695 403.92675781 C-31.79470703 403.84804443 -32.67803711 403.76933105 -33.58813477 403.68823242 C-34.48886719 403.60968018 -35.38959961 403.53112793 -36.31762695 403.45019531 C-38.79125977 403.15307617 -38.79125977 403.15307617 -42.79125977 402.15307617 C-42.46125977 396.54307617 -42.13125977 390.93307617 -41.79125977 385.15307617 C-37.95719116 384.38626245 -36.0615721 384.03869739 -32.43579102 384.45776367 C-31.64881836 384.54670898 -30.8618457 384.6356543 -30.05102539 384.72729492 C-29.24342773 384.82655273 -28.43583008 384.92581055 -27.60375977 385.02807617 C-26.78456055 385.11959961 -25.96536133 385.21112305 -25.12133789 385.30541992 C-19.07274473 386.01233369 -19.07274473 386.01233369 -16.79125977 387.15307617 C-16.79125977 376.26307617 -16.79125977 365.37307617 -16.79125977 354.15307617 C-25.37125977 353.16307617 -33.95125977 352.17307617 -42.79125977 351.15307617 C-42.64688477 348.36870117 -42.50250977 345.58432617 -42.35375977 342.71557617 C-42.31065674 341.83716064 -42.26755371 340.95874512 -42.22314453 340.05371094 C-41.90237088 334.26418728 -41.90237088 334.26418728 -40.79125977 333.15307617 C-38.45550006 333.21862045 -36.12166757 333.35699465 -33.79125977 333.52807617 C-32.51250977 333.61831055 -31.23375977 333.70854492 -29.91625977 333.80151367 C-25.53401132 334.17500076 -21.16249489 334.66738338 -16.79125977 335.15307617 C-16.79125977 324.26307617 -16.79125977 313.37307617 -16.79125977 302.15307617 C-19.76125977 302.15307617 -22.73125977 302.15307617 -25.79125977 302.15307617 C-27.32685852 302.04389869 -28.86151478 301.90800467 -30.38891602 301.71557617 C-31.1269043 301.6253418 -31.86489258 301.53510742 -32.62524414 301.44213867 C-33.3606543 301.34674805 -34.09606445 301.25135742 -34.85375977 301.15307617 C-35.62397461 301.05768555 -36.39418945 300.96229492 -37.18774414 300.86401367 C-39.05619455 300.63190803 -40.92382363 300.39320573 -42.79125977 300.15307617 C-42.65106285 297.34018912 -42.50438022 294.52790732 -42.35375977 291.71557617 C-42.31444336 290.91313477 -42.27512695 290.11069336 -42.23461914 289.28393555 C-41.90454102 283.26635742 -41.90454102 283.26635742 -40.79125977 282.15307617 C-38.06872681 282.2186076 -35.38148442 282.34645579 -32.66625977 282.52807617 C-31.91860352 282.5719043 -31.17094727 282.61573242 -30.40063477 282.66088867 C-25.78952586 282.95008714 -21.39722861 283.49508062 -16.79125977 284.15307617 C-16.79125977 278.21307617 -16.79125977 272.27307617 -16.79125977 266.15307617 C-18.51473633 266.18788086 -20.23821289 266.22268555 -22.01391602 266.25854492 C-24.29385415 266.28669231 -26.57380287 266.31399144 -28.85375977 266.34057617 C-30.55435547 266.37828125 -30.55435547 266.37828125 -32.28930664 266.41674805 C-43.53309891 266.51509025 -43.53309891 266.51509025 -48.79125977 263.15307617 C-51.55272542 258.45389233 -51.04470021 253.31415464 -50.98657227 248.03979492 C-50.98374237 247.07024368 -50.98091248 246.10069244 -50.97799683 245.10176086 C-50.96682967 242.01457212 -50.94173129 238.92767678 -50.91625977 235.84057617 C-50.90622549 233.74357516 -50.89710042 231.64656959 -50.88891602 229.54956055 C-50.86690165 224.41728657 -50.83239548 219.28523107 -50.79125977 214.15307617 C-51.64880859 214.17402344 -52.50635742 214.1949707 -53.38989258 214.21655273 C-56.58044449 214.28484144 -59.77062322 214.3349313 -62.96166992 214.37280273 C-64.34102657 214.39288259 -65.72029846 214.42015283 -67.09936523 214.45483398 C-69.08482955 214.50350434 -71.07092231 214.52394035 -73.05688477 214.54370117 C-74.25087891 214.56464844 -75.44487305 214.5855957 -76.67504883 214.60717773 C-80.4301671 214.0599731 -81.51943236 213.13152437 -83.79125977 210.15307617 C-84.85919944 207.6152525 -85.73504115 205.20888384 -86.54125977 202.59057617 C-86.79020996 201.8197168 -87.03916016 201.04885742 -87.2956543 200.25463867 C-88.84466744 195.39306234 -90.27390228 190.5007749 -91.67407227 185.59448242 C-95.99469579 170.33574734 -95.99469579 170.33574734 -101.91625977 155.65307617 C-116.49341825 124.57913339 -126.64290559 78.59264104 -115.10717773 45.17114258 C-107.45344526 24.34173911 -92.6215764 8.44910097 -72.75610352 -1.34301758 C-69.80132133 -2.65495644 -66.84650663 -3.79118408 -63.79125977 -4.84692383 C-62.86829102 -5.16661133 -61.94532227 -5.48629883 -60.99438477 -5.81567383 C-40.13514331 -11.7754571 -19.7378564 -7.14727067 0 0 Z M-84.86938477 29.32495117 C-98.95632309 45.77763487 -102.02913183 64.18818787 -100.79125977 85.15307617 C-99.33653851 103.55764634 -95.35069663 121.15928045 -89.35375977 138.59057617 C-89.08982422 139.35845459 -88.82588867 140.12633301 -88.55395508 140.91748047 C-86.92278626 145.47398861 -85.016607 149.78828638 -82.90063477 154.14135742 C-79.15542328 162.13390879 -76.84782579 170.42810489 -74.47875977 178.90307617 C-73.81915437 181.23154819 -73.15657867 183.55912414 -72.49067688 185.88580322 C-72.08133239 187.31913334 -71.67605119 188.75363162 -71.27531433 190.18939209 C-70.54399191 193.43857236 -70.54399191 193.43857236 -68.79125977 196.15307617 C-66.11056645 196.25091313 -63.45564854 196.28301528 -60.77452087 196.27333069 C-59.4991709 196.27461233 -59.4991709 196.27461233 -58.19805628 196.27591985 C-55.32667807 196.27757727 -52.45535727 196.27204903 -49.58398438 196.26660156 C-47.53460186 196.26631972 -45.48521925 196.26647736 -43.43583679 196.26704407 C-37.85342065 196.26733216 -32.27102579 196.26143353 -26.68861461 196.25447011 C-20.86162978 196.24823853 -15.03464451 196.24763293 -9.20765686 196.2464447 C1.83501317 196.24333081 12.87767336 196.23511664 23.92033905 196.22509521 C36.48844103 196.21393588 49.05654347 196.20842408 61.62464917 196.20339978 C87.48601832 196.19293407 113.34737873 196.17533351 139.20874023 196.15307617 C139.68811415 194.88823509 140.16620033 193.62290591 140.64375305 192.3573761 C141.04331443 191.30051086 141.04331443 191.30051086 141.45094776 190.22229481 C142.48005213 187.4122353 143.34247697 184.5658797 144.18920898 181.69604492 C150.99436278 158.99574272 150.99436278 158.99574272 155.39624023 149.02807617 C167.54965952 121.45226335 178.90790616 80.74651383 168.20874023 51.15307617 C160.68869474 33.08905155 149.36867396 21.4749137 131.50952148 13.34448242 C116.45430556 7.91035123 100.1067846 8.68104566 85.20874023 14.15307617 C84.03827148 14.57331055 82.86780273 14.99354492 81.66186523 15.42651367 C79.29309177 16.27989276 76.9245979 17.13404838 74.55639648 17.98901367 C60.68868088 22.81115982 44.91632788 25.13497478 30.20874023 24.15307617 C29.5603418 24.1119873 28.91194336 24.07089844 28.24389648 24.02856445 C11.91033012 22.90545235 -2.91573327 18.76997745 -18.22338867 13.12084961 C-41.20089537 4.66818856 -68.0542212 11.7512088 -84.86938477 29.32495117 Z M-32.79125977 214.15307617 C-32.79125977 225.37307617 -32.79125977 236.59307617 -32.79125977 248.15307617 C12.08874023 248.15307617 56.96874023 248.15307617 103.20874023 248.15307617 C103.20874023 236.93307617 103.20874023 225.71307617 103.20874023 214.15307617 C58.32874023 214.15307617 13.44874023 214.15307617 -32.79125977 214.15307617 Z M1.20874023 266.15307617 C1.20874023 272.75307617 1.20874023 279.35307617 1.20874023 286.15307617 C3.8589048 287.47815846 6.22041342 287.58322 9.17138672 287.90917969 C10.42285995 288.04924942 11.67433319 288.18931915 12.96372986 288.33363342 C14.33575041 288.48321298 15.70778548 288.63265942 17.07983398 288.78198242 C18.4822961 288.93720695 19.88472594 289.09272336 21.28712463 289.2485199 C24.22827108 289.57445434 27.16968354 289.89783126 30.11132812 290.21923828 C33.88245084 290.63133951 37.6530248 291.04822252 41.42343044 291.46682835 C44.32030817 291.78818127 47.21737844 292.10776778 50.11451912 292.42674065 C51.50483281 292.57987944 52.89510587 292.7333875 54.28533745 292.88726997 C56.22894011 293.10198005 58.172814 293.31423052 60.11669922 293.52636719 C61.22319321 293.64770523 62.32968719 293.76904327 63.4697113 293.89405823 C66.24797799 294.20014897 66.24797799 294.20014897 69.20874023 294.15307617 C69.20874023 284.91307617 69.20874023 275.67307617 69.20874023 266.15307617 C46.76874023 266.15307617 24.32874023 266.15307617 1.20874023 266.15307617 Z M1.20874023 305.15307617 C1.20874023 316.04307617 1.20874023 326.93307617 1.20874023 338.15307617 C12.28364926 339.39978638 12.28364926 339.39978638 23.35913086 340.64135742 C27.87794723 341.14676623 32.39669131 341.65277002 36.91503906 342.16235352 C40.55872074 342.57325311 44.20269567 342.98145361 47.84688759 343.38780212 C49.2356165 343.54313006 50.6242379 343.69942234 52.01274681 343.85670471 C53.96084543 344.07720573 55.90937053 344.2939288 57.85791016 344.51049805 C58.96599533 344.63485229 60.07408051 344.75920654 61.21574402 344.8873291 C64.53801289 345.2267776 64.53801289 345.2267776 69.20874023 345.15307617 C69.20874023 334.26307617 69.20874023 323.37307617 69.20874023 312.15307617 C56.06573167 310.37699393 42.91435099 308.72831235 29.73620605 307.23791504 C28.14543389 307.05758819 26.55485312 306.87556413 24.96447754 306.69177246 C22.69488761 306.4302035 20.42462191 306.17551837 18.15405273 305.92260742 C17.15189224 305.80563255 17.15189224 305.80563255 16.12948608 305.68629456 C11.06782507 305.13438642 6.3814313 305.15307617 1.20874023 305.15307617 Z M1.20874023 356.15307617 C1.20874023 367.04307617 1.20874023 377.93307617 1.20874023 389.15307617 C9.03379028 390.06790457 16.85886408 390.98195516 24.6848526 391.8886261 C28.32969945 392.31111854 31.97437095 392.73500873 35.61865234 393.16235352 C39.13253211 393.57435101 42.64684972 393.98240717 46.16149712 394.38780212 C48.14639622 394.61777107 50.13082856 394.85175736 52.11524963 395.08581543 C53.33598679 395.22596069 54.55672394 395.36610596 55.81445312 395.51049805 C56.88256729 395.63485229 57.95068146 395.75920654 59.05116272 395.8873291 C62.42624836 396.17138202 65.8217225 396.15307617 69.20874023 396.15307617 C69.20874023 385.26307617 69.20874023 374.37307617 69.20874023 363.15307617 C61.38369019 362.23824777 53.55861639 361.32419718 45.73262787 360.41752625 C42.08778102 359.9950338 38.44310952 359.57114361 34.79882812 359.14379883 C31.28494836 358.73180133 27.77063075 358.32374517 24.25598335 357.91835022 C22.27108425 357.68838128 20.28665191 357.45439498 18.30223083 357.22033691 C17.08149368 357.08019165 15.86075653 356.94004639 14.60302734 356.7956543 C13.53491318 356.67130005 12.46679901 356.5469458 11.36631775 356.41882324 C7.99123211 356.13477032 4.59575797 356.15307617 1.20874023 356.15307617 Z M1.20874023 407.15307617 C1.20874023 418.04307617 1.20874023 428.93307617 1.20874023 440.15307617 C14.3517488 441.92915841 27.50312948 443.57783999 40.68127441 445.0682373 C42.27204658 445.24856415 43.86262735 445.43058822 45.45300293 445.61437988 C47.72259286 445.87594884 49.99285856 446.13063397 52.26342773 446.38354492 C52.93153473 446.46152817 53.59964172 446.53951141 54.28799438 446.61985779 C59.34965539 447.17176592 64.03604917 447.15307617 69.20874023 447.15307617 C69.20874023 436.26307617 69.20874023 425.37307617 69.20874023 414.15307617 C58.13383121 412.90636596 58.13383121 412.90636596 47.05834961 411.66479492 C42.53953324 411.15938611 38.02078916 410.65338232 33.50244141 410.14379883 C29.85875973 409.73289923 26.2147848 409.32469873 22.57059288 408.91835022 C21.18186397 408.76302229 19.79324257 408.60673 18.40473366 408.44944763 C16.45663504 408.22894661 14.50810994 408.01222354 12.55957031 407.7956543 C11.45148514 407.67130005 10.34339996 407.5469458 9.20173645 407.41882324 C5.87946758 407.07937475 5.87946758 407.07937475 1.20874023 407.15307617 Z M5.20874023 459.15307617 C7.64577497 468.59948702 11.44533445 477.01337641 15.20874023 486.15307617 C28.40874023 486.15307617 41.60874023 486.15307617 55.20874023 486.15307617 C56.52874023 482.87370117 57.84874023 479.59432617 59.20874023 476.21557617 C59.83522461 474.66302124 59.83522461 474.66302124 60.47436523 473.07910156 C60.79920898 472.26948975 61.12405273 471.45987793 61.45874023 470.62573242 C61.79389648 469.79307861 62.12905273 468.9604248 62.47436523 468.10253906 C63.26749406 466.34430858 63.26749406 466.34430858 63.20874023 465.15307617 C50.74410247 463.46592877 38.26939041 461.88478633 25.77124023 460.46557617 C24.64161865 460.3343335 23.51199707 460.20309082 22.34814453 460.06787109 C16.5933785 459.42538842 10.99901503 459.00532918 5.20874023 459.15307617 Z " fill="#000000" transform="translate(220.791259765625,7.846923828125)"/>
<path d="M0 0 C1.859375 2.58203125 1.859375 2.58203125 3.75 5.8125 C4.38421875 6.87082031 5.0184375 7.92914063 5.671875 9.01953125 C7 12 7 12 6.8671875 14.27734375 C5.69881552 16.59829891 3.91153659 17.41982363 1.75 18.75 C-5.78460262 24.13185901 -10.60674314 32.65847862 -12.62890625 41.5703125 C-13.4599198 47.01126439 -13.68327014 52.51001573 -14 58 C-19.94 58 -25.88 58 -32 58 C-32.49363059 39.07749418 -29.64665394 23.32751665 -16.2578125 9.10644531 C-5.4791682 -1.8263894 -5.4791682 -1.8263894 0 0 Z " fill="#000000" transform="translate(168,36)"/>
</svg>
